<svg xmlns="http://www.w3.org/2000/svg" version="1.1" xmlns:xlink="http://www.w3.org/1999/xlink" xmlns:svgjs="http://svgjs.com/svgjs" width="1440" height="250" preserveAspectRatio="none" viewBox="0 0 1440 250"><g mask="url(&quot;#SvgjsMask1004&quot;)" fill="none"><rect width="1440" height="250" x="0" y="0" fill="url(#SvgjsLinearGradient1005)"></rect><path d="M33 250L283 0L440.5 0L190.5 250z" fill="url(#SvgjsLinearGradient1006)"></path><path d="M241.60000000000002 250L491.6 0L712.1 0L462.1 250z" fill="url(#SvgjsLinearGradient1006)"></path><path d="M506.20000000000005 250L756.2 0L868.7 0L618.7 250z" fill="url(#SvgjsLinearGradient1006)"></path><path d="M731.8000000000001 250L981.8000000000001 0L1107.8000000000002 0L857.8000000000001 250z" fill="url(#SvgjsLinearGradient1006)"></path><path d="M1432 250L1182 0L957 0L1207 250z" fill="url(#SvgjsLinearGradient1007)"></path><path d="M1179.4 250L929.4000000000001 0L708.9000000000001 0L958.9000000000001 250z" fill="url(#SvgjsLinearGradient1007)"></path><path d="M960.8 250L710.8 0L617.8 0L867.8 250z" fill="url(#SvgjsLinearGradient1007)"></path><path d="M716.1999999999999 250L466.19999999999993 0L238.19999999999993 0L488.19999999999993 250z" fill="url(#SvgjsLinearGradient1007)"></path><path d="M1275.602522655055 250L1440 85.60252265505503L1440 250z" fill="url(#SvgjsLinearGradient1006)"></path><path d="M0 250L164.39747734494497 250L 0 85.60252265505503z" fill="url(#SvgjsLinearGradient1007)"></path></g><defs><mask id="SvgjsMask1004"><rect width="1440" height="250" fill="#ffffff"></rect></mask><linearGradient x1="50%" y1="0%" x2="50%" y2="100%" gradientUnits="userSpaceOnUse" id="SvgjsLinearGradient1005"><stop stop-color="rgba(255, 255, 255, 1)" offset="0"></stop><stop stop-color="rgba(126, 126, 126, 1)" offset="1"></stop></linearGradient><linearGradient x1="0%" y1="100%" x2="100%" y2="0%" id="SvgjsLinearGradient1006"><stop stop-color="rgba(86, 87, 89, 0.54)" offset="0"></stop><stop stop-opacity="0" stop-color="rgba(86, 87, 89, 0.54)" offset="0.66"></stop></linearGradient><linearGradient x1="100%" y1="100%" x2="0%" y2="0%" id="SvgjsLinearGradient1007"><stop stop-color="rgba(86, 87, 89, 0.54)" offset="0"></stop><stop stop-opacity="0" stop-color="rgba(86, 87, 89, 0.54)" offset="0.66"></stop></linearGradient></defs></svg>